<?xml version="1.0" standalone="no"?>
<!DOCTYPE svg PUBLIC "-//W3C//DTD SVG 20010904//EN"
 "http://www.w3.org/TR/2001/REC-SVG-20010904/DTD/svg10.dtd">
<svg version="1.0" xmlns="http://www.w3.org/2000/svg"
 width="1280.000000pt" height="1269.000000pt" viewBox="0 0 1280.000000 1269.000000"
 preserveAspectRatio="xMidYMid meet">
<metadata>
Created by potrace 1.15, written by Peter Selinger 2001-2017
</metadata>
<g transform="translate(0.000000,1269.000000) scale(0.100000,-0.100000)"
fill="#000000" stroke="none">
<path d="M4943 11970 c-43 -18 -57 -85 -26 -130 47 -70 382 -396 578 -564 82
-70 454 -415 535 -496 141 -140 267 -294 441 -538 33 -46 182 -341 300 -592
39 -85 95 -224 124 -310 29 -85 65 -193 80 -240 16 -47 39 -113 52 -147 13
-34 23 -70 23 -80 0 -11 12 -57 26 -104 61 -203 112 -440 120 -559 11 -154
-41 -366 -115 -474 -16 -23 -74 -130 -129 -237 -120 -236 -157 -301 -199 -357
-18 -24 -33 -48 -33 -54 0 -6 -10 -25 -23 -42 -13 -17 -38 -58 -56 -91 -40
-71 -143 -226 -184 -275 l-30 -36 -78 31 c-86 33 -84 30 -139 185 -13 36 -27
69 -32 75 -4 5 -8 15 -8 23 0 17 -76 134 -126 194 -19 23 -68 69 -109 103 -81
67 -149 95 -229 95 -40 0 -53 -5 -78 -31 -28 -27 -30 -34 -24 -76 6 -43 96
-238 188 -407 47 -86 48 -102 6 -111 -42 -9 -184 -73 -220 -98 -35 -25 -53
-17 -68 30 -7 21 -32 76 -55 123 -23 47 -48 103 -55 125 -33 105 -98 216 -135
233 -40 18 -57 15 -98 -19 -58 -47 -78 -98 -90 -221 -20 -199 12 -313 147
-521 49 -76 56 -93 51 -120 -13 -59 -46 -125 -66 -130 -11 -3 -90 6 -177 19
-86 14 -186 29 -222 35 -85 13 -316 67 -355 83 -16 7 -48 16 -70 20 -134 25
-405 118 -529 182 -115 60 -181 111 -314 243 -124 123 -167 179 -338 435 -128
193 -156 243 -322 571 -36 72 -76 146 -89 165 -27 42 -168 389 -218 536 -59
174 -111 407 -129 574 -28 267 -36 393 -37 562 0 89 -4 217 -10 283 -5 66 -10
242 -12 390 -5 350 -30 525 -80 560 -28 20 -91 19 -112 -1 -41 -41 -92 -226
-152 -549 -73 -402 -82 -470 -90 -727 -7 -232 15 -649 51 -963 15 -122 25
-164 81 -331 85 -251 111 -311 180 -424 31 -52 80 -133 108 -180 115 -195 145
-245 206 -343 35 -56 84 -133 110 -171 25 -38 62 -94 81 -125 19 -32 57 -86
84 -122 27 -35 70 -91 95 -124 26 -33 54 -71 64 -85 9 -14 42 -54 72 -90 30
-36 82 -100 115 -142 59 -76 244 -264 277 -282 10 -5 33 -22 50 -37 91 -79
313 -203 479 -270 243 -96 537 -183 690 -204 27 -4 96 -15 154 -25 58 -10 142
-21 188 -24 45 -4 93 -12 107 -18 31 -14 33 -51 4 -71 -24 -17 -28 -17 -324
11 -121 12 -245 23 -275 25 -210 14 -713 81 -795 107 -33 10 -105 31 -160 46
-188 51 -276 94 -445 219 -47 35 -113 82 -147 106 -260 183 -507 408 -688 629
-33 40 -82 99 -110 130 -125 143 -150 176 -200 259 -29 48 -68 110 -87 137
-38 55 -79 125 -115 198 -31 61 -90 291 -106 411 -16 123 -14 454 7 785 20
338 11 463 -38 524 -25 32 -106 45 -145 24 -55 -29 -122 -203 -156 -398 -7
-47 -21 -126 -29 -176 -40 -233 -45 -706 -11 -895 23 -123 87 -340 137 -459
111 -265 210 -435 400 -685 57 -75 121 -160 143 -189 76 -101 139 -168 275
-294 204 -190 233 -215 380 -319 129 -92 244 -176 375 -273 33 -25 78 -56 101
-70 23 -14 59 -37 80 -51 95 -64 203 -127 254 -148 30 -12 129 -40 220 -62 91
-21 181 -44 200 -49 105 -29 325 -47 885 -70 121 -5 263 -11 315 -13 52 -2
111 -5 131 -6 31 -1 37 -6 58 -47 12 -26 19 -50 14 -54 -14 -12 -165 -39 -253
-45 -94 -6 -196 -19 -340 -40 -52 -8 -144 -19 -205 -25 -60 -6 -132 -15 -160
-20 -27 -5 -90 -12 -140 -15 -147 -10 -215 -25 -302 -68 -113 -55 -232 -171
-335 -328 -81 -123 -155 -245 -180 -294 -8 -16 -53 -97 -100 -180 -102 -181
-175 -324 -235 -465 -25 -58 -58 -130 -73 -160 -36 -69 -147 -403 -160 -484
-38 -218 -41 -256 -37 -381 15 -396 278 -1067 526 -1343 78 -86 244 -225 297
-247 56 -23 110 -20 139 10 43 42 29 111 -48 239 -17 28 -49 87 -72 131 -22
44 -62 119 -88 166 -49 90 -167 347 -198 434 -24 70 -67 258 -89 395 -15 96
-17 136 -9 235 9 128 22 206 44 270 8 22 28 87 46 145 18 58 53 157 79 220 26
63 51 126 55 140 12 40 209 435 271 545 126 223 231 330 396 404 108 48 102
47 698 91 80 6 204 22 275 35 72 14 166 32 210 41 216 41 215 41 241 10 27
-31 21 -54 -18 -73 -13 -6 -80 -38 -151 -72 -70 -33 -149 -75 -176 -93 -27
-18 -63 -42 -81 -53 -19 -11 -56 -35 -84 -52 -28 -18 -67 -40 -86 -49 -42 -19
-211 -131 -293 -193 -134 -101 -284 -339 -324 -516 -20 -90 -22 -348 -3 -485
6 -41 17 -120 25 -175 12 -87 38 -198 115 -485 18 -70 80 -252 160 -475 54
-151 166 -386 239 -503 116 -184 445 -546 716 -788 151 -135 262 -194 363
-194 169 0 221 97 139 262 -41 84 -64 114 -206 268 -329 355 -513 605 -622
842 -85 186 -186 434 -198 488 -6 25 -17 65 -26 90 -19 53 -80 276 -100 370
-49 224 -69 378 -69 530 0 97 5 165 12 183 19 45 73 106 135 152 59 45 285
163 391 205 72 28 63 37 148 -140 91 -188 91 -188 147 -290 209 -372 556 -749
1091 -1185 40 -33 90 -74 109 -91 62 -53 240 -173 325 -219 133 -72 275 -125
456 -170 103 -26 300 -14 414 26 148 52 205 88 327 209 111 109 120 121 172
230 118 243 138 349 138 735 0 154 -3 327 -6 385 -2 58 -9 227 -15 375 -22
593 -49 759 -177 1101 -33 87 -125 273 -155 313 -28 37 -23 58 20 72 20 7 64
27 97 45 33 18 91 44 128 58 37 14 80 32 95 41 15 8 61 29 102 46 78 33 194
48 262 35 35 -6 191 -100 244 -146 35 -31 240 -253 310 -335 197 -235 418
-598 548 -900 64 -150 166 -540 191 -730 8 -66 19 -145 24 -175 13 -75 29
-343 36 -585 6 -210 28 -488 46 -590 14 -78 54 -208 82 -265 29 -59 108 -114
152 -106 44 9 101 51 131 96 l27 41 -12 202 c-6 111 -11 409 -11 662 1 620
-19 921 -86 1280 -13 72 -38 169 -55 215 -17 47 -45 122 -61 167 -35 94 -131
289 -237 478 -85 150 -114 195 -236 364 -50 67 -103 142 -119 165 -61 85 -275
343 -322 387 -186 176 -244 215 -439 297 l-110 46 -120 0 c-181 0 -456 -60
-677 -148 -34 -14 -131 -49 -213 -79 -83 -30 -209 -81 -280 -114 -72 -33 -149
-63 -172 -66 -36 -6 -44 -4 -57 15 -30 42 -20 64 43 107 196 134 448 349 705
604 122 120 239 233 261 251 169 139 344 187 578 157 164 -21 590 -103 712
-138 155 -44 488 -173 624 -242 109 -56 278 -186 369 -285 65 -71 282 -404
330 -506 24 -52 62 -133 84 -180 22 -47 55 -129 74 -182 19 -54 59 -149 88
-212 43 -90 61 -118 85 -130 52 -27 99 -17 122 27 20 36 49 159 49 207 0 49
-30 220 -54 303 -8 29 -22 81 -32 116 -38 151 -283 620 -409 786 -77 101 -209
238 -290 300 -97 75 -277 195 -355 237 -69 37 -431 163 -565 197 -191 47 -413
93 -565 116 -58 9 -121 20 -140 25 -163 42 -526 67 -646 44 -216 -41 -234 -53
-724 -494 -114 -102 -153 -135 -236 -198 -45 -34 -87 -69 -95 -78 -21 -26
-216 -182 -274 -220 -25 -16 -27 -16 -55 11 -17 16 -30 33 -30 38 0 11 47 73
104 138 23 25 64 79 93 120 54 77 136 172 237 274 97 98 245 265 287 325 22
30 79 111 127 181 173 245 248 385 291 541 39 138 98 536 102 675 1 43 5 105
10 138 4 33 10 171 13 306 7 317 -6 450 -73 794 -30 155 -47 222 -76 295 -7
19 -27 79 -44 132 -17 54 -58 153 -90 220 -32 68 -70 149 -84 180 -33 73 -197
323 -268 408 -106 127 -279 287 -419 389 -89 65 -214 148 -256 171 -22 12 -75
44 -119 71 -153 95 -314 169 -370 169 -37 0 -79 -29 -100 -70 -32 -63 -9 -132
63 -186 20 -15 66 -53 102 -84 36 -31 135 -110 220 -176 85 -65 172 -133 194
-149 21 -17 64 -50 95 -73 122 -95 310 -282 366 -366 56 -85 182 -337 217
-436 26 -73 94 -422 108 -552 6 -56 20 -164 31 -238 28 -189 34 -392 20 -705
-12 -259 -19 -320 -61 -485 -49 -192 -172 -414 -373 -675 -47 -60 -133 -177
-191 -260 -58 -82 -125 -174 -148 -203 -24 -28 -63 -78 -88 -110 -109 -139
-136 -171 -202 -240 -73 -74 -88 -79 -103 -32 -5 17 106 193 210 330 18 25 57
83 86 130 29 47 66 108 84 135 107 167 289 603 314 753 6 32 20 113 32 182 35
204 17 423 -61 745 -28 116 -62 264 -76 330 -29 136 -60 244 -114 395 -21 58
-45 128 -53 155 -8 28 -28 84 -44 125 -17 41 -45 116 -63 165 -18 50 -45 117
-61 150 -15 33 -36 85 -47 115 -40 110 -72 191 -96 238 -46 91 -194 295 -297
409 -125 140 -429 440 -519 514 -36 29 -99 83 -141 119 -81 69 -253 203 -303
234 -17 11 -85 53 -151 95 -66 41 -138 85 -160 97 -22 12 -77 44 -121 71 -104
63 -297 151 -349 157 -22 3 -50 1 -62 -4z"/>
<path d="M390 8180 c0 -5 5 -10 11 -10 5 0 7 5 4 10 -3 6 -8 10 -11 10 -2 0
-4 -4 -4 -10z"/>
<path d="M0 8109 c0 -17 4 -28 10 -24 6 3 10 17 10 31 0 13 -4 24 -10 24 -5 0
-10 -14 -10 -31z"/>
<path d="M4390 2129 c0 -5 5 -7 10 -4 6 3 10 8 10 11 0 2 -4 4 -10 4 -5 0 -10
-5 -10 -11z"/>
</g>
</svg>
